<svg xmlns="http://www.w3.org/2000/svg" xmlns:svg="http://www.w3.org/2000/svg" id="svg6502" width="640.291" height="616.142" version="1.1"><metadata id="metadata6507"/><g id="layer1" transform="translate(-46.846665,-178.41528)" style="display:none"><g id="g3097"><path style="fill:#fff;stroke:#000;stroke-width:20" id="path3107-06-2" d="m 221.91592,348.09274 c 44.806,32.322 266.82803,285.788 276.42103,319.032 9.593,33.242 -0.866,49.114 28.375,53.248 35.173,4.973 36.099,-31.896 36.099,-31.896 0,0 63.539,-6.842 57.539,-33.842 -25,-45 -41.632,-13.512 -70,-14 -28.368,-0.488 -292.87703,-320.54302 -297.23203,-341.00002 -3.947,-18.542 -14.115,-51.116 -39.957,-46.78 -32.672,5.482 -13.811,43.78 -13.811,43.78 0,0 -70,-20 -58.908,33.931 8.658,42.10102 57.692,0.371 81.474,17.52702 z"/><path style="fill:#fff;stroke:#000;stroke-width:20" id="path3109-9-4" d="m 240.87792,675.28274 c 19.505,-46.82 18.228,-45.057 107.78403,-156.783 l -37.765,-26.979 c 0,0 -86.47903,136.914 -103.72203,145.029 -15.629,7.357 -42.466,5.293 -47.843,18.99 -11.025,28.1 33.316,37.609 33.316,37.609 0,0 -1.874,27.332 20.534,25.318 39.009,-3.508 17.42,-18.518 27.696,-43.184 z"/></g><path id="path3111-7-0" d="m 400.72885,418.11398 c 23.7366,16.05765 82.888,33.91083 82.888,33.91083" style="fill:none;stroke:#231f20;stroke-width:6.07416105"/><path id="path3115-3-8" d="M 303.14245,513.17946" style="fill:#ff0019;stroke:#000;stroke-width:24.29664421"/><path style="fill:#ee1e10;fill-opacity:1;stroke:#000;stroke-width:20;stroke-miterlimit:4;stroke-dasharray:none" id="path3117-5-0" d="m 454.46495,527.63469 c 3.8425,-26.04965 41.6634,-24.72663 41.3682,-65.51584 -0.1409,-19.5588 -1.3071,-119.34147 -131.593,-120.05337 l 0.9232,0 c -130.28469,0.7119 -130.02836,100.55774 -131.59307,120.05337 -3.61534,45.03383 40.60267,42.03301 45.81737,65.33712 12.8562,61.80476 22.2917,115.8024 91.023,117.27086 66.7954,0.45766 73.0667,-55.45666 84.0543,-117.09214 z"/><circle id="circle3119-8-03" cx="371.812" cy="362.338" r="19.819" transform="matrix(1.2148322,0,0,1.2148322,-138.32261,38.651417)" style="stroke:#000;stroke-width:4" d="m 391.63101,362.33801 c 0,10.94573 -8.87327,19.819 -19.819,19.819 -10.94573,0 -19.819,-8.87327 -19.819,-19.819 0,-10.94573 8.87327,-19.819 19.819,-19.819 10.94573,0 19.819,8.87327 19.819,19.819 z"/><path style="fill:#0c46ff;fill-opacity:1;stroke:#000;stroke-width:20;stroke-miterlimit:4;stroke-dasharray:none" id="path3121-79-8" d="m 494.20735,460.52751 c -0.9059,34.12909 -35.1332,47.52683 -35.1332,47.52683 -5.6308,4.79793 -35.2939,-10.58752 -62.8426,-29.22304 -35.0346,-23.70016 -95.6633,-120.5563 -95.6633,-120.5563 0,0 -2.2023,-14.38181 64.7325,-16.3377 66.9324,-1.95588 101.9563,41.60643 107.1193,50.11876 5.1655,8.51354 18.5137,28.77817 21.7873,68.47145 z"/><path id="path3123-2-3" d="m 364.70175,441.31363 c 0,0 -10.2908,74.07683 32.1651,71.25113 15.9204,-1.05933 46.1406,-14.72863 51.7944,-19.47619 4.6054,-3.86681 -11.4413,-42.97226 -35.1062,-54.41477 -24.7534,-11.96852 -48.8533,2.64105 -48.8533,2.63983" style="stroke:#000;stroke-width:24.29664421"/><g id="g3125-8-1" transform="matrix(1.2148322,0,0,1.2148322,-138.32261,38.651417)"><path id="path3127-79-3" d="m 379.054,446.319 c 0,0 22.375,12.583 39.75,12.583 17.45,0 38.275,-13.583 38.275,-13.583" style="fill:none;stroke:#020202;stroke-width:7;stroke-linecap:round"/><line id="line3129-8-6" x1="391.742" x2="391.742" y1="441.069" y2="462.569" style="fill:none;stroke:#020202;stroke-width:7;stroke-linecap:round"/><line id="line3131-2-7" x1="418.804" x2="418.804" y1="445.069" y2="466.569" style="fill:none;stroke:#020202;stroke-width:7;stroke-linecap:round"/><line id="line3133-1-0" x1="445.865" x2="445.865" y1="441.069" y2="462.569" style="fill:none;stroke:#020202;stroke-width:7;stroke-linecap:round"/></g></g><g style="display:none" id="g3371" transform="translate(-46.846665,-178.41528)"><g id="g3373" transform="matrix(0.92756396,0.38420957,-0.38420957,0.92756396,214.50046,-110.74881)"><path id="path3375" d="m 221.91592,348.09274 c 44.806,32.322 266.82803,285.788 276.42103,319.032 9.593,33.242 -0.866,49.114 28.375,53.248 35.173,4.973 36.099,-31.896 36.099,-31.896 0,0 63.539,-6.842 57.539,-33.842 -25,-45 -41.632,-13.512 -70,-14 -28.368,-0.488 -292.87703,-320.54302 -297.23203,-341.00002 -3.947,-18.542 -14.115,-51.116 -39.957,-46.78 -32.672,5.482 -13.811,43.78 -13.811,43.78 0,0 -70,-20 -58.908,33.931 8.658,42.10102 57.692,0.371 81.474,17.52702 z" style="fill:#fff;stroke:#000;stroke-width:20"/><path id="path3377" d="m 240.87792,675.28274 c 19.505,-46.82 18.228,-45.057 107.78403,-156.783 l -37.765,-26.979 c 0,0 -86.47903,136.914 -103.72203,145.029 -15.629,7.357 -42.466,5.293 -47.843,18.99 -11.025,28.1 33.316,37.609 33.316,37.609 0,0 -1.874,27.332 20.534,25.318 39.009,-3.508 17.42,-18.518 27.696,-43.184 z" style="fill:#fff;stroke:#000;stroke-width:20"/></g><path style="fill:none;stroke:#231f20;stroke-width:6.07416105" id="path3379" d="m 400.72885,418.11398 c 23.7366,16.05765 82.888,33.91083 82.888,33.91083"/><path style="fill:#ff0019;stroke:#000;stroke-width:24.29664421" id="path3381" d="M 303.14245,513.17946"/><path id="path3383" d="m 454.46495,527.63469 c 3.8425,-26.04965 41.6634,-24.72663 41.3682,-65.51584 -0.1409,-19.5588 -1.3071,-119.34147 -131.593,-120.05337 l 0.9232,0 c -130.28469,0.7119 -130.02836,100.55774 -131.59307,120.05337 -3.61534,45.03383 40.60267,42.03301 45.81737,65.33712 12.8562,61.80476 22.2917,115.8024 91.023,117.27086 66.7954,0.45766 73.0667,-55.45666 84.0543,-117.09214 z" style="fill:#ee1e10;fill-opacity:1;stroke:#000;stroke-width:20;stroke-miterlimit:4;stroke-dasharray:none"/><circle d="m 391.63101,362.33801 c 0,10.94573 -8.87327,19.819 -19.819,19.819 -10.94573,0 -19.819,-8.87327 -19.819,-19.819 0,-10.94573 8.87327,-19.819 19.819,-19.819 10.94573,0 19.819,8.87327 19.819,19.819 z" style="stroke:#000;stroke-width:4" id="circle3385" cx="371.812" cy="362.338" r="19.819" transform="matrix(1.2148322,0,0,1.2148322,-138.32261,38.651417)"/><path id="path3387" d="m 494.20735,460.52751 c -0.9059,34.12909 -35.1332,47.52683 -35.1332,47.52683 -5.6308,4.79793 -35.2939,-10.58752 -62.8426,-29.22304 -35.0346,-23.70016 -95.6633,-120.5563 -95.6633,-120.5563 0,0 -2.2023,-14.38181 64.7325,-16.3377 66.9324,-1.95588 101.9563,41.60643 107.1193,50.11876 5.1655,8.51354 18.5137,28.77817 21.7873,68.47145 z" style="fill:#0c46ff;fill-opacity:1;stroke:#000;stroke-width:20;stroke-miterlimit:4;stroke-dasharray:none"/><path style="stroke:#000;stroke-width:24.29664421" id="path3389" d="m 364.70175,441.31363 c 0,0 -10.2908,74.07683 32.1651,71.25113 15.9204,-1.05933 46.1406,-14.72863 51.7944,-19.47619 4.6054,-3.86681 -11.4413,-42.97226 -35.1062,-54.41477 -24.7534,-11.96852 -48.8533,2.64105 -48.8533,2.63983"/><g id="g3391" transform="matrix(1.2148322,0,0,1.2148322,-138.32261,38.651417)"><path style="fill:none;stroke:#020202;stroke-width:7;stroke-linecap:round" id="path3393" d="m 379.054,446.319 c 0,0 22.375,12.583 39.75,12.583 17.45,0 38.275,-13.583 38.275,-13.583"/><line style="fill:none;stroke:#020202;stroke-width:7;stroke-linecap:round" id="line3395" x1="391.742" x2="391.742" y1="441.069" y2="462.569"/><line style="fill:none;stroke:#020202;stroke-width:7;stroke-linecap:round" id="line3397" x1="418.804" x2="418.804" y1="445.069" y2="466.569"/><line style="fill:none;stroke:#020202;stroke-width:7;stroke-linecap:round" id="line3399" x1="445.865" x2="445.865" y1="441.069" y2="462.569"/></g></g><g id="g3431" transform="translate(-46.846665,-178.41528)" style="display:none"><g id="g3433" transform="matrix(0.70710678,0.70710678,-0.70710678,0.70710678,455.41145,-126.16471)"><path style="fill:#fff;stroke:#000;stroke-width:20" id="path3435" d="m 221.91592,348.09274 c 44.806,32.322 266.82803,285.788 276.42103,319.032 9.593,33.242 -0.866,49.114 28.375,53.248 35.173,4.973 36.099,-31.896 36.099,-31.896 0,0 63.539,-6.842 57.539,-33.842 -25,-45 -41.632,-13.512 -70,-14 -28.368,-0.488 -292.87703,-320.54302 -297.23203,-341.00002 -3.947,-18.542 -14.115,-51.116 -39.957,-46.78 -32.672,5.482 -13.811,43.78 -13.811,43.78 0,0 -70,-20 -58.908,33.931 8.658,42.10102 57.692,0.371 81.474,17.52702 z"/><path style="fill:#fff;stroke:#000;stroke-width:20" id="path3437" d="m 240.87792,675.28274 c 19.505,-46.82 18.228,-45.057 107.78403,-156.783 l -37.765,-26.979 c 0,0 -86.47903,136.914 -103.72203,145.029 -15.629,7.357 -42.466,5.293 -47.843,18.99 -11.025,28.1 33.316,37.609 33.316,37.609 0,0 -1.874,27.332 20.534,25.318 39.009,-3.508 17.42,-18.518 27.696,-43.184 z"/></g><path id="path3439" d="m 400.72885,418.11398 c 23.7366,16.05765 82.888,33.91083 82.888,33.91083" style="fill:none;stroke:#231f20;stroke-width:6.07416105"/><path id="path3441" d="M 303.14245,513.17946" style="fill:#ff0019;stroke:#000;stroke-width:24.29664421"/><path style="fill:#ee1e10;fill-opacity:1;stroke:#000;stroke-width:20;stroke-miterlimit:4;stroke-dasharray:none" id="path3443" d="m 454.46495,527.63469 c 3.8425,-26.04965 41.6634,-24.72663 41.3682,-65.51584 -0.1409,-19.5588 -1.3071,-119.34147 -131.593,-120.05337 l 0.9232,0 c -130.28469,0.7119 -130.02836,100.55774 -131.59307,120.05337 -3.61534,45.03383 40.60267,42.03301 45.81737,65.33712 12.8562,61.80476 22.2917,115.8024 91.023,117.27086 66.7954,0.45766 73.0667,-55.45666 84.0543,-117.09214 z"/><circle id="circle3445" cx="371.812" cy="362.338" r="19.819" transform="matrix(1.2148322,0,0,1.2148322,-138.32261,38.651417)" style="stroke:#000;stroke-width:4" d="m 391.63101,362.33801 c 0,10.94573 -8.87327,19.819 -19.819,19.819 -10.94573,0 -19.819,-8.87327 -19.819,-19.819 0,-10.94573 8.87327,-19.819 19.819,-19.819 10.94573,0 19.819,8.87327 19.819,19.819 z"/><path style="fill:#0c46ff;fill-opacity:1;stroke:#000;stroke-width:20;stroke-miterlimit:4;stroke-dasharray:none" id="path3447" d="m 494.20735,460.52751 c -0.9059,34.12909 -35.1332,47.52683 -35.1332,47.52683 -5.6308,4.79793 -35.2939,-10.58752 -62.8426,-29.22304 -35.0346,-23.70016 -95.6633,-120.5563 -95.6633,-120.5563 0,0 -2.2023,-14.38181 64.7325,-16.3377 66.9324,-1.95588 101.9563,41.60643 107.1193,50.11876 5.1655,8.51354 18.5137,28.77817 21.7873,68.47145 z"/><path id="path3449" d="m 364.70175,441.31363 c 0,0 -10.2908,74.07683 32.1651,71.25113 15.9204,-1.05933 46.1406,-14.72863 51.7944,-19.47619 4.6054,-3.86681 -11.4413,-42.97226 -35.1062,-54.41477 -24.7534,-11.96852 -48.8533,2.64105 -48.8533,2.63983" style="stroke:#000;stroke-width:24.29664421"/><g id="g3451" transform="matrix(1.2148322,0,0,1.2148322,-138.32261,38.651417)"><path id="path3453" d="m 379.054,446.319 c 0,0 22.375,12.583 39.75,12.583 17.45,0 38.275,-13.583 38.275,-13.583" style="fill:none;stroke:#020202;stroke-width:7;stroke-linecap:round"/><line id="line3455" x1="391.742" x2="391.742" y1="441.069" y2="462.569" style="fill:none;stroke:#020202;stroke-width:7;stroke-linecap:round"/><line id="line3457" x1="418.804" x2="418.804" y1="445.069" y2="466.569" style="fill:none;stroke:#020202;stroke-width:7;stroke-linecap:round"/><line id="line3459" x1="445.865" x2="445.865" y1="441.069" y2="462.569" style="fill:none;stroke:#020202;stroke-width:7;stroke-linecap:round"/></g></g><g id="g3401" transform="translate(-46.846665,-178.41528)" style="display:none"><g id="g3403" transform="matrix(0.38268343,0.92387953,-0.92387953,0.38268343,684.18433,-50.658416)"><path style="fill:#fff;stroke:#000;stroke-width:20" id="path3405" d="m 221.91592,348.09274 c 44.806,32.322 266.82803,285.788 276.42103,319.032 9.593,33.242 -0.866,49.114 28.375,53.248 35.173,4.973 36.099,-31.896 36.099,-31.896 0,0 63.539,-6.842 57.539,-33.842 -25,-45 -41.632,-13.512 -70,-14 -28.368,-0.488 -292.87703,-320.54302 -297.23203,-341.00002 -3.947,-18.542 -14.115,-51.116 -39.957,-46.78 -32.672,5.482 -13.811,43.78 -13.811,43.78 0,0 -70,-20 -58.908,33.931 8.658,42.10102 57.692,0.371 81.474,17.52702 z"/><path style="fill:#fff;stroke:#000;stroke-width:20" id="path3407" d="m 240.87792,675.28274 c 19.505,-46.82 18.228,-45.057 107.78403,-156.783 l -37.765,-26.979 c 0,0 -86.47903,136.914 -103.72203,145.029 -15.629,7.357 -42.466,5.293 -47.843,18.99 -11.025,28.1 33.316,37.609 33.316,37.609 0,0 -1.874,27.332 20.534,25.318 39.009,-3.508 17.42,-18.518 27.696,-43.184 z"/></g><path id="path3409" d="m 400.72885,418.11398 c 23.7366,16.05765 82.888,33.91083 82.888,33.91083" style="fill:none;stroke:#231f20;stroke-width:6.07416105"/><path id="path3411" d="M 303.14245,513.17946" style="fill:#ff0019;stroke:#000;stroke-width:24.29664421"/><path style="fill:#ee1e10;fill-opacity:1;stroke:#000;stroke-width:20;stroke-miterlimit:4;stroke-dasharray:none" id="path3413" d="m 454.46495,527.63469 c 3.8425,-26.04965 41.6634,-24.72663 41.3682,-65.51584 -0.1409,-19.5588 -1.3071,-119.34147 -131.593,-120.05337 l 0.9232,0 c -130.28469,0.7119 -130.02836,100.55774 -131.59307,120.05337 -3.61534,45.03383 40.60267,42.03301 45.81737,65.33712 12.8562,61.80476 22.2917,115.8024 91.023,117.27086 66.7954,0.45766 73.0667,-55.45666 84.0543,-117.09214 z"/><circle id="circle3415" cx="371.812" cy="362.338" r="19.819" transform="matrix(1.2148322,0,0,1.2148322,-138.32261,38.651417)" style="stroke:#000;stroke-width:4" d="m 391.63101,362.33801 c 0,10.94573 -8.87327,19.819 -19.819,19.819 -10.94573,0 -19.819,-8.87327 -19.819,-19.819 0,-10.94573 8.87327,-19.819 19.819,-19.819 10.94573,0 19.819,8.87327 19.819,19.819 z"/><path style="fill:#0c46ff;fill-opacity:1;stroke:#000;stroke-width:20;stroke-miterlimit:4;stroke-dasharray:none" id="path3417" d="m 494.20735,460.52751 c -0.9059,34.12909 -35.1332,47.52683 -35.1332,47.52683 -5.6308,4.79793 -35.2939,-10.58752 -62.8426,-29.22304 -35.0346,-23.70016 -95.6633,-120.5563 -95.6633,-120.5563 0,0 -2.2023,-14.38181 64.7325,-16.3377 66.9324,-1.95588 101.9563,41.60643 107.1193,50.11876 5.1655,8.51354 18.5137,28.77817 21.7873,68.47145 z"/><path id="path3419" d="m 364.70175,441.31363 c 0,0 -10.2908,74.07683 32.1651,71.25113 15.9204,-1.05933 46.1406,-14.72863 51.7944,-19.47619 4.6054,-3.86681 -11.4413,-42.97226 -35.1062,-54.41477 -24.7534,-11.96852 -48.8533,2.64105 -48.8533,2.63983" style="stroke:#000;stroke-width:24.29664421"/><g id="g3421" transform="matrix(1.2148322,0,0,1.2148322,-138.32261,38.651417)"><path id="path3423" d="m 379.054,446.319 c 0,0 22.375,12.583 39.75,12.583 17.45,0 38.275,-13.583 38.275,-13.583" style="fill:none;stroke:#020202;stroke-width:7;stroke-linecap:round"/><line id="line3425" x1="391.742" x2="391.742" y1="441.069" y2="462.569" style="fill:none;stroke:#020202;stroke-width:7;stroke-linecap:round"/><line id="line3427" x1="418.804" x2="418.804" y1="445.069" y2="466.569" style="fill:none;stroke:#020202;stroke-width:7;stroke-linecap:round"/><line id="line3429" x1="445.865" x2="445.865" y1="441.069" y2="462.569" style="fill:none;stroke:#020202;stroke-width:7;stroke-linecap:round"/></g></g><g style="display:none" id="g3461" transform="translate(-46.846665,-178.41528)"><g id="g3463" transform="matrix(0,1,-1,0,866.6479,106.64789)"><path id="path3465" d="m 221.91592,348.09274 c 44.806,32.322 266.82803,285.788 276.42103,319.032 9.593,33.242 -0.866,49.114 28.375,53.248 35.173,4.973 36.099,-31.896 36.099,-31.896 0,0 63.539,-6.842 57.539,-33.842 -25,-45 -41.632,-13.512 -70,-14 -28.368,-0.488 -292.87703,-320.54302 -297.23203,-341.00002 -3.947,-18.542 -14.115,-51.116 -39.957,-46.78 -32.672,5.482 -13.811,43.78 -13.811,43.78 0,0 -70,-20 -58.908,33.931 8.658,42.10102 57.692,0.371 81.474,17.52702 z" style="fill:#fff;stroke:#000;stroke-width:20"/><path id="path3467" d="m 240.87792,675.28274 c 19.505,-46.82 18.228,-45.057 107.78403,-156.783 l -37.765,-26.979 c 0,0 -86.47903,136.914 -103.72203,145.029 -15.629,7.357 -42.466,5.293 -47.843,18.99 -11.025,28.1 33.316,37.609 33.316,37.609 0,0 -1.874,27.332 20.534,25.318 39.009,-3.508 17.42,-18.518 27.696,-43.184 z" style="fill:#fff;stroke:#000;stroke-width:20"/></g><path style="fill:none;stroke:#231f20;stroke-width:6.07416105" id="path3469" d="m 400.72885,418.11398 c 23.7366,16.05765 82.888,33.91083 82.888,33.91083"/><path style="fill:#ff0019;stroke:#000;stroke-width:24.29664421" id="path3471" d="M 303.14245,513.17946"/><path id="path3473" d="m 454.46495,527.63469 c 3.8425,-26.04965 41.6634,-24.72663 41.3682,-65.51584 -0.1409,-19.5588 -1.3071,-119.34147 -131.593,-120.05337 l 0.9232,0 c -130.28469,0.7119 -130.02836,100.55774 -131.59307,120.05337 -3.61534,45.03383 40.60267,42.03301 45.81737,65.33712 12.8562,61.80476 22.2917,115.8024 91.023,117.27086 66.7954,0.45766 73.0667,-55.45666 84.0543,-117.09214 z" style="fill:#ee1e10;fill-opacity:1;stroke:#000;stroke-width:20;stroke-miterlimit:4;stroke-dasharray:none"/><circle d="m 391.63101,362.33801 c 0,10.94573 -8.87327,19.819 -19.819,19.819 -10.94573,0 -19.819,-8.87327 -19.819,-19.819 0,-10.94573 8.87327,-19.819 19.819,-19.819 10.94573,0 19.819,8.87327 19.819,19.819 z" style="stroke:#000;stroke-width:4" id="circle3475" cx="371.812" cy="362.338" r="19.819" transform="matrix(1.2148322,0,0,1.2148322,-138.32261,38.651417)"/><path id="path3477" d="m 494.20735,460.52751 c -0.9059,34.12909 -35.1332,47.52683 -35.1332,47.52683 -5.6308,4.79793 -35.2939,-10.58752 -62.8426,-29.22304 -35.0346,-23.70016 -95.6633,-120.5563 -95.6633,-120.5563 0,0 -2.2023,-14.38181 64.7325,-16.3377 66.9324,-1.95588 101.9563,41.60643 107.1193,50.11876 5.1655,8.51354 18.5137,28.77817 21.7873,68.47145 z" style="fill:#0c46ff;fill-opacity:1;stroke:#000;stroke-width:20;stroke-miterlimit:4;stroke-dasharray:none"/><path style="stroke:#000;stroke-width:24.29664421" id="path3479" d="m 364.70175,441.31363 c 0,0 -10.2908,74.07683 32.1651,71.25113 15.9204,-1.05933 46.1406,-14.72863 51.7944,-19.47619 4.6054,-3.86681 -11.4413,-42.97226 -35.1062,-54.41477 -24.7534,-11.96852 -48.8533,2.64105 -48.8533,2.63983"/><g id="g3481" transform="matrix(1.2148322,0,0,1.2148322,-138.32261,38.651417)"><path style="fill:none;stroke:#020202;stroke-width:7;stroke-linecap:round" id="path3483" d="m 379.054,446.319 c 0,0 22.375,12.583 39.75,12.583 17.45,0 38.275,-13.583 38.275,-13.583"/><line style="fill:none;stroke:#020202;stroke-width:7;stroke-linecap:round" id="line3485" x1="391.742" x2="391.742" y1="441.069" y2="462.569"/><line style="fill:none;stroke:#020202;stroke-width:7;stroke-linecap:round" id="line3487" x1="418.804" x2="418.804" y1="445.069" y2="466.569"/><line style="fill:none;stroke:#020202;stroke-width:7;stroke-linecap:round" id="line3489" x1="445.865" x2="445.865" y1="441.069" y2="462.569"/></g></g><g style="display:none" id="g3341" transform="translate(-46.846665,-178.41528)"><g id="g3343" transform="matrix(-0.38268343,0.92387953,-0.92387953,-0.38268343,975.02374,321.80576)"><path id="path3345" d="m 221.91592,348.09274 c 44.806,32.322 266.82803,285.788 276.42103,319.032 9.593,33.242 -0.866,49.114 28.375,53.248 35.173,4.973 36.099,-31.896 36.099,-31.896 0,0 63.539,-6.842 57.539,-33.842 -25,-45 -41.632,-13.512 -70,-14 -28.368,-0.488 -292.87703,-320.54302 -297.23203,-341.00002 -3.947,-18.542 -14.115,-51.116 -39.957,-46.78 -32.672,5.482 -13.811,43.78 -13.811,43.78 0,0 -70,-20 -58.908,33.931 8.658,42.10102 57.692,0.371 81.474,17.52702 z" style="fill:#fff;stroke:#000;stroke-width:20"/><path id="path3347" d="m 240.87792,675.28274 c 19.505,-46.82 18.228,-45.057 107.78403,-156.783 l -37.765,-26.979 c 0,0 -86.47903,136.914 -103.72203,145.029 -15.629,7.357 -42.466,5.293 -47.843,18.99 -11.025,28.1 33.316,37.609 33.316,37.609 0,0 -1.874,27.332 20.534,25.318 39.009,-3.508 17.42,-18.518 27.696,-43.184 z" style="fill:#fff;stroke:#000;stroke-width:20"/></g><path style="fill:none;stroke:#231f20;stroke-width:6.07416105" id="path3349" d="m 400.72885,418.11398 c 23.7366,16.05765 82.888,33.91083 82.888,33.91083"/><path style="fill:#ff0019;stroke:#000;stroke-width:24.29664421" id="path3351" d="M 303.14245,513.17946"/><path id="path3353" d="m 454.46495,527.63469 c 3.8425,-26.04965 41.6634,-24.72663 41.3682,-65.51584 -0.1409,-19.5588 -1.3071,-119.34147 -131.593,-120.05337 l 0.9232,0 c -130.28469,0.7119 -130.02836,100.55774 -131.59307,120.05337 -3.61534,45.03383 40.60267,42.03301 45.81737,65.33712 12.8562,61.80476 22.2917,115.8024 91.023,117.27086 66.7954,0.45766 73.0667,-55.45666 84.0543,-117.09214 z" style="fill:#ee1e10;fill-opacity:1;stroke:#000;stroke-width:20;stroke-miterlimit:4;stroke-dasharray:none"/><circle d="m 391.63101,362.33801 c 0,10.94573 -8.87327,19.819 -19.819,19.819 -10.94573,0 -19.819,-8.87327 -19.819,-19.819 0,-10.94573 8.87327,-19.819 19.819,-19.819 10.94573,0 19.819,8.87327 19.819,19.819 z" style="stroke:#000;stroke-width:4" id="circle3355" cx="371.812" cy="362.338" r="19.819" transform="matrix(1.2148322,0,0,1.2148322,-138.32261,38.651417)"/><path id="path3357" d="m 494.20735,460.52751 c -0.9059,34.12909 -35.1332,47.52683 -35.1332,47.52683 -5.6308,4.79793 -35.2939,-10.58752 -62.8426,-29.22304 -35.0346,-23.70016 -95.6633,-120.5563 -95.6633,-120.5563 0,0 -2.2023,-14.38181 64.7325,-16.3377 66.9324,-1.95588 101.9563,41.60643 107.1193,50.11876 5.1655,8.51354 18.5137,28.77817 21.7873,68.47145 z" style="fill:#0c46ff;fill-opacity:1;stroke:#000;stroke-width:20;stroke-miterlimit:4;stroke-dasharray:none"/><path style="stroke:#000;stroke-width:24.29664421" id="path3359" d="m 364.70175,441.31363 c 0,0 -10.2908,74.07683 32.1651,71.25113 15.9204,-1.05933 46.1406,-14.72863 51.7944,-19.47619 4.6054,-3.86681 -11.4413,-42.97226 -35.1062,-54.41477 -24.7534,-11.96852 -48.8533,2.64105 -48.8533,2.63983"/><g id="g3361" transform="matrix(1.2148322,0,0,1.2148322,-138.32261,38.651417)"><path style="fill:none;stroke:#020202;stroke-width:7;stroke-linecap:round" id="path3363" d="m 379.054,446.319 c 0,0 22.375,12.583 39.75,12.583 17.45,0 38.275,-13.583 38.275,-13.583"/><line style="fill:none;stroke:#020202;stroke-width:7;stroke-linecap:round" id="line3365" x1="391.742" x2="391.742" y1="441.069" y2="462.569"/><line style="fill:none;stroke:#020202;stroke-width:7;stroke-linecap:round" id="line3367" x1="418.804" x2="418.804" y1="445.069" y2="466.569"/><line style="fill:none;stroke:#020202;stroke-width:7;stroke-linecap:round" id="line3369" x1="445.865" x2="445.865" y1="441.069" y2="462.569"/></g></g><g style="display:none" id="g3311" transform="translate(-46.846665,-178.41528)"><g id="g3313" transform="matrix(-0.70710678,0.70710678,-0.70710678,-0.70710678,992.81261,562.05935)"><path id="path3315" d="m 221.91592,348.09274 c 44.806,32.322 266.82803,285.788 276.42103,319.032 9.593,33.242 -0.866,49.114 28.375,53.248 35.173,4.973 36.099,-31.896 36.099,-31.896 0,0 63.539,-6.842 57.539,-33.842 -25,-45 -41.632,-13.512 -70,-14 -28.368,-0.488 -292.87703,-320.54302 -297.23203,-341.00002 -3.947,-18.542 -14.115,-51.116 -39.957,-46.78 -32.672,5.482 -13.811,43.78 -13.811,43.78 0,0 -70,-20 -58.908,33.931 8.658,42.10102 57.692,0.371 81.474,17.52702 z" style="fill:#fff;stroke:#000;stroke-width:20"/><path id="path3317" d="m 240.87792,675.28274 c 19.505,-46.82 18.228,-45.057 107.78403,-156.783 l -37.765,-26.979 c 0,0 -86.47903,136.914 -103.72203,145.029 -15.629,7.357 -42.466,5.293 -47.843,18.99 -11.025,28.1 33.316,37.609 33.316,37.609 0,0 -1.874,27.332 20.534,25.318 39.009,-3.508 17.42,-18.518 27.696,-43.184 z" style="fill:#fff;stroke:#000;stroke-width:20"/></g><path style="fill:none;stroke:#231f20;stroke-width:6.07416105" id="path3319" d="m 400.72885,418.11398 c 23.7366,16.05765 82.888,33.91083 82.888,33.91083"/><path style="fill:#ff0019;stroke:#000;stroke-width:24.29664421" id="path3321" d="M 303.14245,513.17946"/><path id="path3323" d="m 454.46495,527.63469 c 3.8425,-26.04965 41.6634,-24.72663 41.3682,-65.51584 -0.1409,-19.5588 -1.3071,-119.34147 -131.593,-120.05337 l 0.9232,0 c -130.28469,0.7119 -130.02836,100.55774 -131.59307,120.05337 -3.61534,45.03383 40.60267,42.03301 45.81737,65.33712 12.8562,61.80476 22.2917,115.8024 91.023,117.27086 66.7954,0.45766 73.0667,-55.45666 84.0543,-117.09214 z" style="fill:#ee1e10;fill-opacity:1;stroke:#000;stroke-width:20;stroke-miterlimit:4;stroke-dasharray:none"/><circle d="m 391.63101,362.33801 c 0,10.94573 -8.87327,19.819 -19.819,19.819 -10.94573,0 -19.819,-8.87327 -19.819,-19.819 0,-10.94573 8.87327,-19.819 19.819,-19.819 10.94573,0 19.819,8.87327 19.819,19.819 z" style="stroke:#000;stroke-width:4" id="circle3325" cx="371.812" cy="362.338" r="19.819" transform="matrix(1.2148322,0,0,1.2148322,-138.32261,38.651417)"/><path id="path3327" d="m 494.20735,460.52751 c -0.9059,34.12909 -35.1332,47.52683 -35.1332,47.52683 -5.6308,4.79793 -35.2939,-10.58752 -62.8426,-29.22304 -35.0346,-23.70016 -95.6633,-120.5563 -95.6633,-120.5563 0,0 -2.2023,-14.38181 64.7325,-16.3377 66.9324,-1.95588 101.9563,41.60643 107.1193,50.11876 5.1655,8.51354 18.5137,28.77817 21.7873,68.47145 z" style="fill:#0c46ff;fill-opacity:1;stroke:#000;stroke-width:20;stroke-miterlimit:4;stroke-dasharray:none"/><path style="stroke:#000;stroke-width:24.29664421" id="path3329" d="m 364.70175,441.31363 c 0,0 -10.2908,74.07683 32.1651,71.25113 15.9204,-1.05933 46.1406,-14.72863 51.7944,-19.47619 4.6054,-3.86681 -11.4413,-42.97226 -35.1062,-54.41477 -24.7534,-11.96852 -48.8533,2.64105 -48.8533,2.63983"/><g id="g3331" transform="matrix(1.2148322,0,0,1.2148322,-138.32261,38.651417)"><path style="fill:none;stroke:#020202;stroke-width:7;stroke-linecap:round" id="path3333" d="m 379.054,446.319 c 0,0 22.375,12.583 39.75,12.583 17.45,0 38.275,-13.583 38.275,-13.583"/><line style="fill:none;stroke:#020202;stroke-width:7;stroke-linecap:round" id="line3335" x1="391.742" x2="391.742" y1="441.069" y2="462.569"/><line style="fill:none;stroke:#020202;stroke-width:7;stroke-linecap:round" id="line3337" x1="418.804" x2="418.804" y1="445.069" y2="466.569"/><line style="fill:none;stroke:#020202;stroke-width:7;stroke-linecap:round" id="line3339" x1="445.865" x2="445.865" y1="441.069" y2="462.569"/></g></g><g id="g3491" transform="translate(-46.846665,-178.41528)" style="display:none"><g id="g3493" transform="matrix(-0.92387953,0.38268343,-0.38268343,-0.92387953,917.30632,790.83222)"><path style="fill:#fff;stroke:#000;stroke-width:20" id="path3495" d="m 221.91592,348.09274 c 44.806,32.322 266.82803,285.788 276.42103,319.032 9.593,33.242 -0.866,49.114 28.375,53.248 35.173,4.973 36.099,-31.896 36.099,-31.896 0,0 63.539,-6.842 57.539,-33.842 -25,-45 -41.632,-13.512 -70,-14 -28.368,-0.488 -292.87703,-320.54302 -297.23203,-341.00002 -3.947,-18.542 -14.115,-51.116 -39.957,-46.78 -32.672,5.482 -13.811,43.78 -13.811,43.78 0,0 -70,-20 -58.908,33.931 8.658,42.10102 57.692,0.371 81.474,17.52702 z"/><path style="fill:#fff;stroke:#000;stroke-width:20" id="path3497" d="m 240.87792,675.28274 c 19.505,-46.82 18.228,-45.057 107.78403,-156.783 l -37.765,-26.979 c 0,0 -86.47903,136.914 -103.72203,145.029 -15.629,7.357 -42.466,5.293 -47.843,18.99 -11.025,28.1 33.316,37.609 33.316,37.609 0,0 -1.874,27.332 20.534,25.318 39.009,-3.508 17.42,-18.518 27.696,-43.184 z"/></g><path id="path3499" d="m 400.72885,418.11398 c 23.7366,16.05765 82.888,33.91083 82.888,33.91083" style="fill:none;stroke:#231f20;stroke-width:6.07416105"/><path id="path3501" d="M 303.14245,513.17946" style="fill:#ff0019;stroke:#000;stroke-width:24.29664421"/><path style="fill:#ee1e10;fill-opacity:1;stroke:#000;stroke-width:20;stroke-miterlimit:4;stroke-dasharray:none" id="path3503" d="m 454.46495,527.63469 c 3.8425,-26.04965 41.6634,-24.72663 41.3682,-65.51584 -0.1409,-19.5588 -1.3071,-119.34147 -131.593,-120.05337 l 0.9232,0 c -130.28469,0.7119 -130.02836,100.55774 -131.59307,120.05337 -3.61534,45.03383 40.60267,42.03301 45.81737,65.33712 12.8562,61.80476 22.2917,115.8024 91.023,117.27086 66.7954,0.45766 73.0667,-55.45666 84.0543,-117.09214 z"/><circle id="circle3505" cx="371.812" cy="362.338" r="19.819" transform="matrix(1.2148322,0,0,1.2148322,-138.32261,38.651417)" style="stroke:#000;stroke-width:4" d="m 391.63101,362.33801 c 0,10.94573 -8.87327,19.819 -19.819,19.819 -10.94573,0 -19.819,-8.87327 -19.819,-19.819 0,-10.94573 8.87327,-19.819 19.819,-19.819 10.94573,0 19.819,8.87327 19.819,19.819 z"/><path style="fill:#0c46ff;fill-opacity:1;stroke:#000;stroke-width:20;stroke-miterlimit:4;stroke-dasharray:none" id="path3507" d="m 494.20735,460.52751 c -0.9059,34.12909 -35.1332,47.52683 -35.1332,47.52683 -5.6308,4.79793 -35.2939,-10.58752 -62.8426,-29.22304 -35.0346,-23.70016 -95.6633,-120.5563 -95.6633,-120.5563 0,0 -2.2023,-14.38181 64.7325,-16.3377 66.9324,-1.95588 101.9563,41.60643 107.1193,50.11876 5.1655,8.51354 18.5137,28.77817 21.7873,68.47145 z"/><path id="path3509" d="m 364.70175,441.31363 c 0,0 -10.2908,74.07683 32.1651,71.25113 15.9204,-1.05933 46.1406,-14.72863 51.7944,-19.47619 4.6054,-3.86681 -11.4413,-42.97226 -35.1062,-54.41477 -24.7534,-11.96852 -48.8533,2.64105 -48.8533,2.63983" style="stroke:#000;stroke-width:24.29664421"/><g id="g3511" transform="matrix(1.2148322,0,0,1.2148322,-138.32261,38.651417)"><path id="path3513" d="m 379.054,446.319 c 0,0 22.375,12.583 39.75,12.583 17.45,0 38.275,-13.583 38.275,-13.583" style="fill:none;stroke:#020202;stroke-width:7;stroke-linecap:round"/><line id="line3515" x1="391.742" x2="391.742" y1="441.069" y2="462.569" style="fill:none;stroke:#020202;stroke-width:7;stroke-linecap:round"/><line id="line3517" x1="418.804" x2="418.804" y1="445.069" y2="466.569" style="fill:none;stroke:#020202;stroke-width:7;stroke-linecap:round"/><line id="line3519" x1="445.865" x2="445.865" y1="441.069" y2="462.569" style="fill:none;stroke:#020202;stroke-width:7;stroke-linecap:round"/></g></g><g style="display:none" id="g3281" transform="translate(-46.846665,-178.41528)"><g id="g3283" transform="matrix(-1,0,0,-1,760.00001,973.29579)"><path id="path3285" d="m 221.91592,348.09274 c 44.806,32.322 266.82803,285.788 276.42103,319.032 9.593,33.242 -0.866,49.114 28.375,53.248 35.173,4.973 36.099,-31.896 36.099,-31.896 0,0 63.539,-6.842 57.539,-33.842 -25,-45 -41.632,-13.512 -70,-14 -28.368,-0.488 -292.87703,-320.54302 -297.23203,-341.00002 -3.947,-18.542 -14.115,-51.116 -39.957,-46.78 -32.672,5.482 -13.811,43.78 -13.811,43.78 0,0 -70,-20 -58.908,33.931 8.658,42.10102 57.692,0.371 81.474,17.52702 z" style="fill:#fff;stroke:#000;stroke-width:20"/><path id="path3287" d="m 240.87792,675.28274 c 19.505,-46.82 18.228,-45.057 107.78403,-156.783 l -37.765,-26.979 c 0,0 -86.47903,136.914 -103.72203,145.029 -15.629,7.357 -42.466,5.293 -47.843,18.99 -11.025,28.1 33.316,37.609 33.316,37.609 0,0 -1.874,27.332 20.534,25.318 39.009,-3.508 17.42,-18.518 27.696,-43.184 z" style="fill:#fff;stroke:#000;stroke-width:20"/></g><path style="fill:none;stroke:#231f20;stroke-width:6.07416105" id="path3289" d="m 400.72885,418.11398 c 23.7366,16.05765 82.888,33.91083 82.888,33.91083"/><path style="fill:#ff0019;stroke:#000;stroke-width:24.29664421" id="path3291" d="M 303.14245,513.17946"/><path id="path3293" d="m 454.46495,527.63469 c 3.8425,-26.04965 41.6634,-24.72663 41.3682,-65.51584 -0.1409,-19.5588 -1.3071,-119.34147 -131.593,-120.05337 l 0.9232,0 c -130.28469,0.7119 -130.02836,100.55774 -131.59307,120.05337 -3.61534,45.03383 40.60267,42.03301 45.81737,65.33712 12.8562,61.80476 22.2917,115.8024 91.023,117.27086 66.7954,0.45766 73.0667,-55.45666 84.0543,-117.09214 z" style="fill:#ee1e10;fill-opacity:1;stroke:#000;stroke-width:20;stroke-miterlimit:4;stroke-dasharray:none"/><circle d="m 391.63101,362.33801 c 0,10.94573 -8.87327,19.819 -19.819,19.819 -10.94573,0 -19.819,-8.87327 -19.819,-19.819 0,-10.94573 8.87327,-19.819 19.819,-19.819 10.94573,0 19.819,8.87327 19.819,19.819 z" style="stroke:#000;stroke-width:4" id="circle3295" cx="371.812" cy="362.338" r="19.819" transform="matrix(1.2148322,0,0,1.2148322,-138.32261,38.651417)"/><path id="path3297" d="m 494.20735,460.52751 c -0.9059,34.12909 -35.1332,47.52683 -35.1332,47.52683 -5.6308,4.79793 -35.2939,-10.58752 -62.8426,-29.22304 -35.0346,-23.70016 -95.6633,-120.5563 -95.6633,-120.5563 0,0 -2.2023,-14.38181 64.7325,-16.3377 66.9324,-1.95588 101.9563,41.60643 107.1193,50.11876 5.1655,8.51354 18.5137,28.77817 21.7873,68.47145 z" style="fill:#0c46ff;fill-opacity:1;stroke:#000;stroke-width:20;stroke-miterlimit:4;stroke-dasharray:none"/><path style="stroke:#000;stroke-width:24.29664421" id="path3299" d="m 364.70175,441.31363 c 0,0 -10.2908,74.07683 32.1651,71.25113 15.9204,-1.05933 46.1406,-14.72863 51.7944,-19.47619 4.6054,-3.86681 -11.4413,-42.97226 -35.1062,-54.41477 -24.7534,-11.96852 -48.8533,2.64105 -48.8533,2.63983"/><g id="g3301" transform="matrix(1.2148322,0,0,1.2148322,-138.32261,38.651417)"><path style="fill:none;stroke:#020202;stroke-width:7;stroke-linecap:round" id="path3303" d="m 379.054,446.319 c 0,0 22.375,12.583 39.75,12.583 17.45,0 38.275,-13.583 38.275,-13.583"/><line style="fill:none;stroke:#020202;stroke-width:7;stroke-linecap:round" id="line3305" x1="391.742" x2="391.742" y1="441.069" y2="462.569"/><line style="fill:none;stroke:#020202;stroke-width:7;stroke-linecap:round" id="line3307" x1="418.804" x2="418.804" y1="445.069" y2="466.569"/><line style="fill:none;stroke:#020202;stroke-width:7;stroke-linecap:round" id="line3309" x1="445.865" x2="445.865" y1="441.069" y2="462.569"/></g></g><g style="display:none" id="g3521" transform="translate(-46.846665,-178.41528)"><g id="g3523" transform="matrix(-0.92387953,-0.38268343,0.38268343,-0.92387953,544.84214,1081.6716)"><path id="path3525" d="m 221.91592,348.09274 c 44.806,32.322 266.82803,285.788 276.42103,319.032 9.593,33.242 -0.866,49.114 28.375,53.248 35.173,4.973 36.099,-31.896 36.099,-31.896 0,0 63.539,-6.842 57.539,-33.842 -25,-45 -41.632,-13.512 -70,-14 -28.368,-0.488 -292.87703,-320.54302 -297.23203,-341.00002 -3.947,-18.542 -14.115,-51.116 -39.957,-46.78 -32.672,5.482 -13.811,43.78 -13.811,43.78 0,0 -70,-20 -58.908,33.931 8.658,42.10102 57.692,0.371 81.474,17.52702 z" style="fill:#fff;stroke:#000;stroke-width:20"/><path id="path3527" d="m 240.87792,675.28274 c 19.505,-46.82 18.228,-45.057 107.78403,-156.783 l -37.765,-26.979 c 0,0 -86.47903,136.914 -103.72203,145.029 -15.629,7.357 -42.466,5.293 -47.843,18.99 -11.025,28.1 33.316,37.609 33.316,37.609 0,0 -1.874,27.332 20.534,25.318 39.009,-3.508 17.42,-18.518 27.696,-43.184 z" style="fill:#fff;stroke:#000;stroke-width:20"/></g><path style="fill:none;stroke:#231f20;stroke-width:6.07416105" id="path3529" d="m 400.72885,418.11398 c 23.7366,16.05765 82.888,33.91083 82.888,33.91083"/><path style="fill:#ff0019;stroke:#000;stroke-width:24.29664421" id="path3531" d="M 303.14245,513.17946"/><path id="path3533" d="m 454.46495,527.63469 c 3.8425,-26.04965 41.6634,-24.72663 41.3682,-65.51584 -0.1409,-19.5588 -1.3071,-119.34147 -131.593,-120.05337 l 0.9232,0 c -130.28469,0.7119 -130.02836,100.55774 -131.59307,120.05337 -3.61534,45.03383 40.60267,42.03301 45.81737,65.33712 12.8562,61.80476 22.2917,115.8024 91.023,117.27086 66.7954,0.45766 73.0667,-55.45666 84.0543,-117.09214 z" style="fill:#ee1e10;fill-opacity:1;stroke:#000;stroke-width:20;stroke-miterlimit:4;stroke-dasharray:none"/><circle d="m 391.63101,362.33801 c 0,10.94573 -8.87327,19.819 -19.819,19.819 -10.94573,0 -19.819,-8.87327 -19.819,-19.819 0,-10.94573 8.87327,-19.819 19.819,-19.819 10.94573,0 19.819,8.87327 19.819,19.819 z" style="stroke:#000;stroke-width:4" id="circle3535" cx="371.812" cy="362.338" r="19.819" transform="matrix(1.2148322,0,0,1.2148322,-138.32261,38.651417)"/><path id="path3537" d="m 494.20735,460.52751 c -0.9059,34.12909 -35.1332,47.52683 -35.1332,47.52683 -5.6308,4.79793 -35.2939,-10.58752 -62.8426,-29.22304 -35.0346,-23.70016 -95.6633,-120.5563 -95.6633,-120.5563 0,0 -2.2023,-14.38181 64.7325,-16.3377 66.9324,-1.95588 101.9563,41.60643 107.1193,50.11876 5.1655,8.51354 18.5137,28.77817 21.7873,68.47145 z" style="fill:#0c46ff;fill-opacity:1;stroke:#000;stroke-width:20;stroke-miterlimit:4;stroke-dasharray:none"/><path style="stroke:#000;stroke-width:24.29664421" id="path3539" d="m 364.70175,441.31363 c 0,0 -10.2908,74.07683 32.1651,71.25113 15.9204,-1.05933 46.1406,-14.72863 51.7944,-19.47619 4.6054,-3.86681 -11.4413,-42.97226 -35.1062,-54.41477 -24.7534,-11.96852 -48.8533,2.64105 -48.8533,2.63983"/><g id="g3541" transform="matrix(1.2148322,0,0,1.2148322,-138.32261,38.651417)"><path style="fill:none;stroke:#020202;stroke-width:7;stroke-linecap:round" id="path3543" d="m 379.054,446.319 c 0,0 22.375,12.583 39.75,12.583 17.45,0 38.275,-13.583 38.275,-13.583"/><line style="fill:none;stroke:#020202;stroke-width:7;stroke-linecap:round" id="line3545" x1="391.742" x2="391.742" y1="441.069" y2="462.569"/><line style="fill:none;stroke:#020202;stroke-width:7;stroke-linecap:round" id="line3547" x1="418.804" x2="418.804" y1="445.069" y2="466.569"/><line style="fill:none;stroke:#020202;stroke-width:7;stroke-linecap:round" id="line3549" x1="445.865" x2="445.865" y1="441.069" y2="462.569"/></g></g><g style="display:none" id="g3551" transform="translate(-46.846665,-178.41528)"><g id="g3553" transform="matrix(-0.70710678,-0.70710678,0.70710678,-0.70710678,304.58855,1099.4605)"><path id="path3555" d="m 221.91592,348.09274 c 44.806,32.322 266.82803,285.788 276.42103,319.032 9.593,33.242 -0.866,49.114 28.375,53.248 35.173,4.973 36.099,-31.896 36.099,-31.896 0,0 63.539,-6.842 57.539,-33.842 -25,-45 -41.632,-13.512 -70,-14 -28.368,-0.488 -292.87703,-320.54302 -297.23203,-341.00002 -3.947,-18.542 -14.115,-51.116 -39.957,-46.78 -32.672,5.482 -13.811,43.78 -13.811,43.78 0,0 -70,-20 -58.908,33.931 8.658,42.10102 57.692,0.371 81.474,17.52702 z" style="fill:#fff;stroke:#000;stroke-width:20"/><path id="path3557" d="m 240.87792,675.28274 c 19.505,-46.82 18.228,-45.057 107.78403,-156.783 l -37.765,-26.979 c 0,0 -86.47903,136.914 -103.72203,145.029 -15.629,7.357 -42.466,5.293 -47.843,18.99 -11.025,28.1 33.316,37.609 33.316,37.609 0,0 -1.874,27.332 20.534,25.318 39.009,-3.508 17.42,-18.518 27.696,-43.184 z" style="fill:#fff;stroke:#000;stroke-width:20"/></g><path style="fill:none;stroke:#231f20;stroke-width:6.07416105" id="path3559" d="m 400.72885,418.11398 c 23.7366,16.05765 82.888,33.91083 82.888,33.91083"/><path style="fill:#ff0019;stroke:#000;stroke-width:24.29664421" id="path3561" d="M 303.14245,513.17946"/><path id="path3563" d="m 454.46495,527.63469 c 3.8425,-26.04965 41.6634,-24.72663 41.3682,-65.51584 -0.1409,-19.5588 -1.3071,-119.34147 -131.593,-120.05337 l 0.9232,0 c -130.28469,0.7119 -130.02836,100.55774 -131.59307,120.05337 -3.61534,45.03383 40.60267,42.03301 45.81737,65.33712 12.8562,61.80476 22.2917,115.8024 91.023,117.27086 66.7954,0.45766 73.0667,-55.45666 84.0543,-117.09214 z" style="fill:#ee1e10;fill-opacity:1;stroke:#000;stroke-width:20;stroke-miterlimit:4;stroke-dasharray:none"/><circle d="m 391.63101,362.33801 c 0,10.94573 -8.87327,19.819 -19.819,19.819 -10.94573,0 -19.819,-8.87327 -19.819,-19.819 0,-10.94573 8.87327,-19.819 19.819,-19.819 10.94573,0 19.819,8.87327 19.819,19.819 z" style="stroke:#000;stroke-width:4" id="circle3565" cx="371.812" cy="362.338" r="19.819" transform="matrix(1.2148322,0,0,1.2148322,-138.32261,38.651417)"/><path id="path3567" d="m 494.20735,460.52751 c -0.9059,34.12909 -35.1332,47.52683 -35.1332,47.52683 -5.6308,4.79793 -35.2939,-10.58752 -62.8426,-29.22304 -35.0346,-23.70016 -95.6633,-120.5563 -95.6633,-120.5563 0,0 -2.2023,-14.38181 64.7325,-16.3377 66.9324,-1.95588 101.9563,41.60643 107.1193,50.11876 5.1655,8.51354 18.5137,28.77817 21.7873,68.47145 z" style="fill:#0c46ff;fill-opacity:1;stroke:#000;stroke-width:20;stroke-miterlimit:4;stroke-dasharray:none"/><path style="stroke:#000;stroke-width:24.29664421" id="path3569" d="m 364.70175,441.31363 c 0,0 -10.2908,74.07683 32.1651,71.25113 15.9204,-1.05933 46.1406,-14.72863 51.7944,-19.47619 4.6054,-3.86681 -11.4413,-42.97226 -35.1062,-54.41477 -24.7534,-11.96852 -48.8533,2.64105 -48.8533,2.63983"/><g id="g3571" transform="matrix(1.2148322,0,0,1.2148322,-138.32261,38.651417)"><path style="fill:none;stroke:#020202;stroke-width:7;stroke-linecap:round" id="path3573" d="m 379.054,446.319 c 0,0 22.375,12.583 39.75,12.583 17.45,0 38.275,-13.583 38.275,-13.583"/><line style="fill:none;stroke:#020202;stroke-width:7;stroke-linecap:round" id="line3575" x1="391.742" x2="391.742" y1="441.069" y2="462.569"/><line style="fill:none;stroke:#020202;stroke-width:7;stroke-linecap:round" id="line3577" x1="418.804" x2="418.804" y1="445.069" y2="466.569"/><line style="fill:none;stroke:#020202;stroke-width:7;stroke-linecap:round" id="line3579" x1="445.865" x2="445.865" y1="441.069" y2="462.569"/></g></g><g style="display:none" id="g3581" transform="translate(-46.846665,-178.41528)"><g id="g3583" transform="matrix(-0.38268343,-0.92387953,0.92387953,-0.38268343,75.815677,1023.9542)"><path id="path3585" d="m 221.91592,348.09274 c 44.806,32.322 266.82803,285.788 276.42103,319.032 9.593,33.242 -0.866,49.114 28.375,53.248 35.173,4.973 36.099,-31.896 36.099,-31.896 0,0 63.539,-6.842 57.539,-33.842 -25,-45 -41.632,-13.512 -70,-14 -28.368,-0.488 -292.87703,-320.54302 -297.23203,-341.00002 -3.947,-18.542 -14.115,-51.116 -39.957,-46.78 -32.672,5.482 -13.811,43.78 -13.811,43.78 0,0 -70,-20 -58.908,33.931 8.658,42.10102 57.692,0.371 81.474,17.52702 z" style="fill:#fff;stroke:#000;stroke-width:20"/><path id="path3587" d="m 240.87792,675.28274 c 19.505,-46.82 18.228,-45.057 107.78403,-156.783 l -37.765,-26.979 c 0,0 -86.47903,136.914 -103.72203,145.029 -15.629,7.357 -42.466,5.293 -47.843,18.99 -11.025,28.1 33.316,37.609 33.316,37.609 0,0 -1.874,27.332 20.534,25.318 39.009,-3.508 17.42,-18.518 27.696,-43.184 z" style="fill:#fff;stroke:#000;stroke-width:20"/></g><path style="fill:none;stroke:#231f20;stroke-width:6.07416105" id="path3589" d="m 400.72885,418.11398 c 23.7366,16.05765 82.888,33.91083 82.888,33.91083"/><path style="fill:#ff0019;stroke:#000;stroke-width:24.29664421" id="path3591" d="M 303.14245,513.17946"/><path id="path3593" d="m 454.46495,527.63469 c 3.8425,-26.04965 41.6634,-24.72663 41.3682,-65.51584 -0.1409,-19.5588 -1.3071,-119.34147 -131.593,-120.05337 l 0.9232,0 c -130.28469,0.7119 -130.02836,100.55774 -131.59307,120.05337 -3.61534,45.03383 40.60267,42.03301 45.81737,65.33712 12.8562,61.80476 22.2917,115.8024 91.023,117.27086 66.7954,0.45766 73.0667,-55.45666 84.0543,-117.09214 z" style="fill:#ee1e10;fill-opacity:1;stroke:#000;stroke-width:20;stroke-miterlimit:4;stroke-dasharray:none"/><circle d="m 391.63101,362.33801 c 0,10.94573 -8.87327,19.819 -19.819,19.819 -10.94573,0 -19.819,-8.87327 -19.819,-19.819 0,-10.94573 8.87327,-19.819 19.819,-19.819 10.94573,0 19.819,8.87327 19.819,19.819 z" style="stroke:#000;stroke-width:4" id="circle3595" cx="371.812" cy="362.338" r="19.819" transform="matrix(1.2148322,0,0,1.2148322,-138.32261,38.651417)"/><path id="path3597" d="m 494.20735,460.52751 c -0.9059,34.12909 -35.1332,47.52683 -35.1332,47.52683 -5.6308,4.79793 -35.2939,-10.58752 -62.8426,-29.22304 -35.0346,-23.70016 -95.6633,-120.5563 -95.6633,-120.5563 0,0 -2.2023,-14.38181 64.7325,-16.3377 66.9324,-1.95588 101.9563,41.60643 107.1193,50.11876 5.1655,8.51354 18.5137,28.77817 21.7873,68.47145 z" style="fill:#0c46ff;fill-opacity:1;stroke:#000;stroke-width:20;stroke-miterlimit:4;stroke-dasharray:none"/><path style="stroke:#000;stroke-width:24.29664421" id="path3599" d="m 364.70175,441.31363 c 0,0 -10.2908,74.07683 32.1651,71.25113 15.9204,-1.05933 46.1406,-14.72863 51.7944,-19.47619 4.6054,-3.86681 -11.4413,-42.97226 -35.1062,-54.41477 -24.7534,-11.96852 -48.8533,2.64105 -48.8533,2.63983"/><g id="g3601" transform="matrix(1.2148322,0,0,1.2148322,-138.32261,38.651417)"><path style="fill:none;stroke:#020202;stroke-width:7;stroke-linecap:round" id="path3603" d="m 379.054,446.319 c 0,0 22.375,12.583 39.75,12.583 17.45,0 38.275,-13.583 38.275,-13.583"/><line style="fill:none;stroke:#020202;stroke-width:7;stroke-linecap:round" id="line3605" x1="391.742" x2="391.742" y1="441.069" y2="462.569"/><line style="fill:none;stroke:#020202;stroke-width:7;stroke-linecap:round" id="line3607" x1="418.804" x2="418.804" y1="445.069" y2="466.569"/><line style="fill:none;stroke:#020202;stroke-width:7;stroke-linecap:round" id="line3609" x1="445.865" x2="445.865" y1="441.069" y2="462.569"/></g></g><g style="display:none" id="g3611" transform="translate(-46.846665,-178.41528)"><g id="g3613" transform="matrix(0,-1,1,0,-106.64789,866.6479)"><path id="path3615" d="m 221.91592,348.09274 c 44.806,32.322 266.82803,285.788 276.42103,319.032 9.593,33.242 -0.866,49.114 28.375,53.248 35.173,4.973 36.099,-31.896 36.099,-31.896 0,0 63.539,-6.842 57.539,-33.842 -25,-45 -41.632,-13.512 -70,-14 -28.368,-0.488 -292.87703,-320.54302 -297.23203,-341.00002 -3.947,-18.542 -14.115,-51.116 -39.957,-46.78 -32.672,5.482 -13.811,43.78 -13.811,43.78 0,0 -70,-20 -58.908,33.931 8.658,42.10102 57.692,0.371 81.474,17.52702 z" style="fill:#fff;stroke:#000;stroke-width:20"/><path id="path3617" d="m 240.87792,675.28274 c 19.505,-46.82 18.228,-45.057 107.78403,-156.783 l -37.765,-26.979 c 0,0 -86.47903,136.914 -103.72203,145.029 -15.629,7.357 -42.466,5.293 -47.843,18.99 -11.025,28.1 33.316,37.609 33.316,37.609 0,0 -1.874,27.332 20.534,25.318 39.009,-3.508 17.42,-18.518 27.696,-43.184 z" style="fill:#fff;stroke:#000;stroke-width:20"/></g><path style="fill:none;stroke:#231f20;stroke-width:6.07416105" id="path3619" d="m 400.72885,418.11398 c 23.7366,16.05765 82.888,33.91083 82.888,33.91083"/><path style="fill:#ff0019;stroke:#000;stroke-width:24.29664421" id="path3621" d="M 303.14245,513.17946"/><path id="path3623" d="m 454.46495,527.63469 c 3.8425,-26.04965 41.6634,-24.72663 41.3682,-65.51584 -0.1409,-19.5588 -1.3071,-119.34147 -131.593,-120.05337 l 0.9232,0 c -130.28469,0.7119 -130.02836,100.55774 -131.59307,120.05337 -3.61534,45.03383 40.60267,42.03301 45.81737,65.33712 12.8562,61.80476 22.2917,115.8024 91.023,117.27086 66.7954,0.45766 73.0667,-55.45666 84.0543,-117.09214 z" style="fill:#ee1e10;fill-opacity:1;stroke:#000;stroke-width:20;stroke-miterlimit:4;stroke-dasharray:none"/><circle d="m 391.63101,362.33801 c 0,10.94573 -8.87327,19.819 -19.819,19.819 -10.94573,0 -19.819,-8.87327 -19.819,-19.819 0,-10.94573 8.87327,-19.819 19.819,-19.819 10.94573,0 19.819,8.87327 19.819,19.819 z" style="stroke:#000;stroke-width:4" id="circle3625" cx="371.812" cy="362.338" r="19.819" transform="matrix(1.2148322,0,0,1.2148322,-138.32261,38.651417)"/><path id="path3627" d="m 494.20735,460.52751 c -0.9059,34.12909 -35.1332,47.52683 -35.1332,47.52683 -5.6308,4.79793 -35.2939,-10.58752 -62.8426,-29.22304 -35.0346,-23.70016 -95.6633,-120.5563 -95.6633,-120.5563 0,0 -2.2023,-14.38181 64.7325,-16.3377 66.9324,-1.95588 101.9563,41.60643 107.1193,50.11876 5.1655,8.51354 18.5137,28.77817 21.7873,68.47145 z" style="fill:#0c46ff;fill-opacity:1;stroke:#000;stroke-width:20;stroke-miterlimit:4;stroke-dasharray:none"/><path style="stroke:#000;stroke-width:24.29664421" id="path3629" d="m 364.70175,441.31363 c 0,0 -10.2908,74.07683 32.1651,71.25113 15.9204,-1.05933 46.1406,-14.72863 51.7944,-19.47619 4.6054,-3.86681 -11.4413,-42.97226 -35.1062,-54.41477 -24.7534,-11.96852 -48.8533,2.64105 -48.8533,2.63983"/><g id="g3631" transform="matrix(1.2148322,0,0,1.2148322,-138.32261,38.651417)"><path style="fill:none;stroke:#020202;stroke-width:7;stroke-linecap:round" id="path3633" d="m 379.054,446.319 c 0,0 22.375,12.583 39.75,12.583 17.45,0 38.275,-13.583 38.275,-13.583"/><line style="fill:none;stroke:#020202;stroke-width:7;stroke-linecap:round" id="line3635" x1="391.742" x2="391.742" y1="441.069" y2="462.569"/><line style="fill:none;stroke:#020202;stroke-width:7;stroke-linecap:round" id="line3637" x1="418.804" x2="418.804" y1="445.069" y2="466.569"/><line style="fill:none;stroke:#020202;stroke-width:7;stroke-linecap:round" id="line3639" x1="445.865" x2="445.865" y1="441.069" y2="462.569"/></g></g><g style="display:none" id="g3641" transform="translate(-46.846665,-178.41528)"><g id="g3643" transform="matrix(0.38268343,-0.92387953,0.92387953,0.38268343,-215.02373,651.49003)"><path id="path3645" d="m 221.91592,348.09274 c 44.806,32.322 266.82803,285.788 276.42103,319.032 9.593,33.242 -0.866,49.114 28.375,53.248 35.173,4.973 36.099,-31.896 36.099,-31.896 0,0 63.539,-6.842 57.539,-33.842 -25,-45 -41.632,-13.512 -70,-14 -28.368,-0.488 -292.87703,-320.54302 -297.23203,-341.00002 -3.947,-18.542 -14.115,-51.116 -39.957,-46.78 -32.672,5.482 -13.811,43.78 -13.811,43.78 0,0 -70,-20 -58.908,33.931 8.658,42.10102 57.692,0.371 81.474,17.52702 z" style="fill:#fff;stroke:#000;stroke-width:20"/><path id="path3647" d="m 240.87792,675.28274 c 19.505,-46.82 18.228,-45.057 107.78403,-156.783 l -37.765,-26.979 c 0,0 -86.47903,136.914 -103.72203,145.029 -15.629,7.357 -42.466,5.293 -47.843,18.99 -11.025,28.1 33.316,37.609 33.316,37.609 0,0 -1.874,27.332 20.534,25.318 39.009,-3.508 17.42,-18.518 27.696,-43.184 z" style="fill:#fff;stroke:#000;stroke-width:20"/></g><path style="fill:none;stroke:#231f20;stroke-width:6.07416105" id="path3649" d="m 400.72885,418.11398 c 23.7366,16.05765 82.888,33.91083 82.888,33.91083"/><path style="fill:#ff0019;stroke:#000;stroke-width:24.29664421" id="path3651" d="M 303.14245,513.17946"/><path id="path3653" d="m 454.46495,527.63469 c 3.8425,-26.04965 41.6634,-24.72663 41.3682,-65.51584 -0.1409,-19.5588 -1.3071,-119.34147 -131.593,-120.05337 l 0.9232,0 c -130.28469,0.7119 -130.02836,100.55774 -131.59307,120.05337 -3.61534,45.03383 40.60267,42.03301 45.81737,65.33712 12.8562,61.80476 22.2917,115.8024 91.023,117.27086 66.7954,0.45766 73.0667,-55.45666 84.0543,-117.09214 z" style="fill:#ee1e10;fill-opacity:1;stroke:#000;stroke-width:20;stroke-miterlimit:4;stroke-dasharray:none"/><circle d="m 391.63101,362.33801 c 0,10.94573 -8.87327,19.819 -19.819,19.819 -10.94573,0 -19.819,-8.87327 -19.819,-19.819 0,-10.94573 8.87327,-19.819 19.819,-19.819 10.94573,0 19.819,8.87327 19.819,19.819 z" style="stroke:#000;stroke-width:4" id="circle3655" cx="371.812" cy="362.338" r="19.819" transform="matrix(1.2148322,0,0,1.2148322,-138.32261,38.651417)"/><path id="path3657" d="m 494.20735,460.52751 c -0.9059,34.12909 -35.1332,47.52683 -35.1332,47.52683 -5.6308,4.79793 -35.2939,-10.58752 -62.8426,-29.22304 -35.0346,-23.70016 -95.6633,-120.5563 -95.6633,-120.5563 0,0 -2.2023,-14.38181 64.7325,-16.3377 66.9324,-1.95588 101.9563,41.60643 107.1193,50.11876 5.1655,8.51354 18.5137,28.77817 21.7873,68.47145 z" style="fill:#0c46ff;fill-opacity:1;stroke:#000;stroke-width:20;stroke-miterlimit:4;stroke-dasharray:none"/><path style="stroke:#000;stroke-width:24.29664421" id="path3659" d="m 364.70175,441.31363 c 0,0 -10.2908,74.07683 32.1651,71.25113 15.9204,-1.05933 46.1406,-14.72863 51.7944,-19.47619 4.6054,-3.86681 -11.4413,-42.97226 -35.1062,-54.41477 -24.7534,-11.96852 -48.8533,2.64105 -48.8533,2.63983"/><g id="g3661" transform="matrix(1.2148322,0,0,1.2148322,-138.32261,38.651417)"><path style="fill:none;stroke:#020202;stroke-width:7;stroke-linecap:round" id="path3663" d="m 379.054,446.319 c 0,0 22.375,12.583 39.75,12.583 17.45,0 38.275,-13.583 38.275,-13.583"/><line style="fill:none;stroke:#020202;stroke-width:7;stroke-linecap:round" id="line3665" x1="391.742" x2="391.742" y1="441.069" y2="462.569"/><line style="fill:none;stroke:#020202;stroke-width:7;stroke-linecap:round" id="line3667" x1="418.804" x2="418.804" y1="445.069" y2="466.569"/><line style="fill:none;stroke:#020202;stroke-width:7;stroke-linecap:round" id="line3669" x1="445.865" x2="445.865" y1="441.069" y2="462.569"/></g></g><g style="display:none" id="g3671" transform="translate(-46.846665,-178.41528)"><g id="g3673" transform="matrix(0.70710678,-0.70710678,0.70710678,0.70710678,-232.8126,411.23645)"><path id="path3675" d="m 221.91592,348.09274 c 44.806,32.322 266.82803,285.788 276.42103,319.032 9.593,33.242 -0.866,49.114 28.375,53.248 35.173,4.973 36.099,-31.896 36.099,-31.896 0,0 63.539,-6.842 57.539,-33.842 -25,-45 -41.632,-13.512 -70,-14 -28.368,-0.488 -292.87703,-320.54302 -297.23203,-341.00002 -3.947,-18.542 -14.115,-51.116 -39.957,-46.78 -32.672,5.482 -13.811,43.78 -13.811,43.78 0,0 -70,-20 -58.908,33.931 8.658,42.10102 57.692,0.371 81.474,17.52702 z" style="fill:#fff;stroke:#000;stroke-width:20"/><path id="path3677" d="m 240.87792,675.28274 c 19.505,-46.82 18.228,-45.057 107.78403,-156.783 l -37.765,-26.979 c 0,0 -86.47903,136.914 -103.72203,145.029 -15.629,7.357 -42.466,5.293 -47.843,18.99 -11.025,28.1 33.316,37.609 33.316,37.609 0,0 -1.874,27.332 20.534,25.318 39.009,-3.508 17.42,-18.518 27.696,-43.184 z" style="fill:#fff;stroke:#000;stroke-width:20"/></g><path style="fill:none;stroke:#231f20;stroke-width:6.07416105" id="path3679" d="m 400.72885,418.11398 c 23.7366,16.05765 82.888,33.91083 82.888,33.91083"/><path style="fill:#ff0019;stroke:#000;stroke-width:24.29664421" id="path3681" d="M 303.14245,513.17946"/><path id="path3683" d="m 454.46495,527.63469 c 3.8425,-26.04965 41.6634,-24.72663 41.3682,-65.51584 -0.1409,-19.5588 -1.3071,-119.34147 -131.593,-120.05337 l 0.9232,0 c -130.28469,0.7119 -130.02836,100.55774 -131.59307,120.05337 -3.61534,45.03383 40.60267,42.03301 45.81737,65.33712 12.8562,61.80476 22.2917,115.8024 91.023,117.27086 66.7954,0.45766 73.0667,-55.45666 84.0543,-117.09214 z" style="fill:#ee1e10;fill-opacity:1;stroke:#000;stroke-width:20;stroke-miterlimit:4;stroke-dasharray:none"/><circle d="m 391.63101,362.33801 c 0,10.94573 -8.87327,19.819 -19.819,19.819 -10.94573,0 -19.819,-8.87327 -19.819,-19.819 0,-10.94573 8.87327,-19.819 19.819,-19.819 10.94573,0 19.819,8.87327 19.819,19.819 z" style="stroke:#000;stroke-width:4" id="circle3685" cx="371.812" cy="362.338" r="19.819" transform="matrix(1.2148322,0,0,1.2148322,-138.32261,38.651417)"/><path id="path3687" d="m 494.20735,460.52751 c -0.9059,34.12909 -35.1332,47.52683 -35.1332,47.52683 -5.6308,4.79793 -35.2939,-10.58752 -62.8426,-29.22304 -35.0346,-23.70016 -95.6633,-120.5563 -95.6633,-120.5563 0,0 -2.2023,-14.38181 64.7325,-16.3377 66.9324,-1.95588 101.9563,41.60643 107.1193,50.11876 5.1655,8.51354 18.5137,28.77817 21.7873,68.47145 z" style="fill:#0c46ff;fill-opacity:1;stroke:#000;stroke-width:20;stroke-miterlimit:4;stroke-dasharray:none"/><path style="stroke:#000;stroke-width:24.29664421" id="path3689" d="m 364.70175,441.31363 c 0,0 -10.2908,74.07683 32.1651,71.25113 15.9204,-1.05933 46.1406,-14.72863 51.7944,-19.47619 4.6054,-3.86681 -11.4413,-42.97226 -35.1062,-54.41477 -24.7534,-11.96852 -48.8533,2.64105 -48.8533,2.63983"/><g id="g3691" transform="matrix(1.2148322,0,0,1.2148322,-138.32261,38.651417)"><path style="fill:none;stroke:#020202;stroke-width:7;stroke-linecap:round" id="path3693" d="m 379.054,446.319 c 0,0 22.375,12.583 39.75,12.583 17.45,0 38.275,-13.583 38.275,-13.583"/><line style="fill:none;stroke:#020202;stroke-width:7;stroke-linecap:round" id="line3695" x1="391.742" x2="391.742" y1="441.069" y2="462.569"/><line style="fill:none;stroke:#020202;stroke-width:7;stroke-linecap:round" id="line3697" x1="418.804" x2="418.804" y1="445.069" y2="466.569"/><line style="fill:none;stroke:#020202;stroke-width:7;stroke-linecap:round" id="line3699" x1="445.865" x2="445.865" y1="441.069" y2="462.569"/></g></g><g style="display:inline" id="g3701" transform="translate(-46.846665,-178.41528)"><g id="g3703" transform="matrix(0.92387953,-0.38268343,0.38268343,0.92387953,-157.30631,182.46357)"><path id="path3705" d="m 221.91592,348.09274 c 44.806,32.322 266.82803,285.788 276.42103,319.032 9.593,33.242 -0.866,49.114 28.375,53.248 35.173,4.973 36.099,-31.896 36.099,-31.896 0,0 63.539,-6.842 57.539,-33.842 -25,-45 -41.632,-13.512 -70,-14 -28.368,-0.488 -292.87703,-320.54302 -297.23203,-341.00002 -3.947,-18.542 -14.115,-51.116 -39.957,-46.78 -32.672,5.482 -13.811,43.78 -13.811,43.78 0,0 -70,-20 -58.908,33.931 8.658,42.10102 57.692,0.371 81.474,17.52702 z" style="fill:#fff;stroke:#000;stroke-width:20"/><path id="path3707" d="m 240.87792,675.28274 c 19.505,-46.82 18.228,-45.057 107.78403,-156.783 l -37.765,-26.979 c 0,0 -86.47903,136.914 -103.72203,145.029 -15.629,7.357 -42.466,5.293 -47.843,18.99 -11.025,28.1 33.316,37.609 33.316,37.609 0,0 -1.874,27.332 20.534,25.318 39.009,-3.508 17.42,-18.518 27.696,-43.184 z" style="fill:#fff;stroke:#000;stroke-width:20"/></g><path style="fill:none;stroke:#231f20;stroke-width:6.07416105" id="path3709" d="m 400.72885,418.11398 c 23.7366,16.05765 82.888,33.91083 82.888,33.91083"/><path style="fill:#ff0019;stroke:#000;stroke-width:24.29664421" id="path3711" d="M 303.14245,513.17946"/><path id="path3713" d="m 454.46495,527.63469 c 3.8425,-26.04965 41.6634,-24.72663 41.3682,-65.51584 -0.1409,-19.5588 -1.3071,-119.34147 -131.593,-120.05337 l 0.9232,0 c -130.28469,0.7119 -130.02836,100.55774 -131.59307,120.05337 -3.61534,45.03383 40.60267,42.03301 45.81737,65.33712 12.8562,61.80476 22.2917,115.8024 91.023,117.27086 66.7954,0.45766 73.0667,-55.45666 84.0543,-117.09214 z" style="fill:#ee1e10;fill-opacity:1;stroke:#000;stroke-width:20;stroke-miterlimit:4;stroke-dasharray:none"/><circle d="m 391.63101,362.33801 c 0,10.94573 -8.87327,19.819 -19.819,19.819 -10.94573,0 -19.819,-8.87327 -19.819,-19.819 0,-10.94573 8.87327,-19.819 19.819,-19.819 10.94573,0 19.819,8.87327 19.819,19.819 z" style="stroke:#000;stroke-width:4" id="circle3715" cx="371.812" cy="362.338" r="19.819" transform="matrix(1.2148322,0,0,1.2148322,-138.32261,38.651417)"/><path id="path3717" d="m 494.20735,460.52751 c -0.9059,34.12909 -35.1332,47.52683 -35.1332,47.52683 -5.6308,4.79793 -35.2939,-10.58752 -62.8426,-29.22304 -35.0346,-23.70016 -95.6633,-120.5563 -95.6633,-120.5563 0,0 -2.2023,-14.38181 64.7325,-16.3377 66.9324,-1.95588 101.9563,41.60643 107.1193,50.11876 5.1655,8.51354 18.5137,28.77817 21.7873,68.47145 z" style="fill:#0c46ff;fill-opacity:1;stroke:#000;stroke-width:20;stroke-miterlimit:4;stroke-dasharray:none"/><path style="stroke:#000;stroke-width:24.29664421" id="path3719" d="m 364.70175,441.31363 c 0,0 -10.2908,74.07683 32.1651,71.25113 15.9204,-1.05933 46.1406,-14.72863 51.7944,-19.47619 4.6054,-3.86681 -11.4413,-42.97226 -35.1062,-54.41477 -24.7534,-11.96852 -48.8533,2.64105 -48.8533,2.63983"/><g id="g3721" transform="matrix(1.2148322,0,0,1.2148322,-138.32261,38.651417)"><path style="fill:none;stroke:#020202;stroke-width:7;stroke-linecap:round" id="path3723" d="m 379.054,446.319 c 0,0 22.375,12.583 39.75,12.583 17.45,0 38.275,-13.583 38.275,-13.583"/><line style="fill:none;stroke:#020202;stroke-width:7;stroke-linecap:round" id="line3725" x1="391.742" x2="391.742" y1="441.069" y2="462.569"/><line style="fill:none;stroke:#020202;stroke-width:7;stroke-linecap:round" id="line3727" x1="418.804" x2="418.804" y1="445.069" y2="466.569"/><line style="fill:none;stroke:#020202;stroke-width:7;stroke-linecap:round" id="line3729" x1="445.865" x2="445.865" y1="441.069" y2="462.569"/></g></g></svg>